# xmcd
# 
# Track frame offsets:
#     150
#     22743
#     42190
#     61062
#     77653
#     96588
#     115235
#     133980
#     150732
#     169570
#     185332
#     202197
#     219675
#     236509
#     256205
# 
# Disc length: 3617
# 
# Revision: 1
# Processed by: cddbd v1.5.2PL0 Copyright (c) Steve Scherf et al.
# Submitted via: BonkEnc v1.0.8
# 
DISCID=cb0e1f0f
DTITLE=P.G. Wodehouse, Martin Jarvis - My Man Jeeves - Disc 02
DYEAR=0
DGENRE=
TTITLE0=Fixing it for Freddie
TTITLE1=Fixing it for Freddie
TTITLE2=Absent Treatment
TTITLE3=Absent Treatment
TTITLE4=Absent Treatment
TTITLE5=Absent Treatment
TTITLE6=Absent Treatment
TTITLE7=Absent Treatment
TTITLE8=Absent Treatment
TTITLE9=Absent Treatment
TTITLE10=Rallying Round Old George
TTITLE11=Rallying Round Old George
TTITLE12=Rallying Round Old George
TTITLE13=Rallying Round Old George
TTITLE14=Rallying Round Old George
EXTD=
EXTT0=
EXTT1=
EXTT2=
EXTT3=
EXTT4=
EXTT5=
EXTT6=
EXTT7=
EXTT8=
EXTT9=
EXTT10=
EXTT11=
EXTT12=
EXTT13=
EXTT14=
PLAYORDER=
